PathFileType	4	(X/Y/Z)	SUBJ26_1_walk_RCNL2025.trc
DataRate	CameraRate	NumFrames	NumMarkers	Units	OrigDataRate	OrigDataStartFrame	OrigNumFrames
100	100	9	25	mm	100	193	385
Frame#	Time	R_Shoulder			L_Shoulder			C7			J_Notch			R_Elbow			L_Elbow			R_Wrist			L_Wrist			R_Asis			L_Asis			Sacral			Thoracic			Sternum			R_Thigh_Lateral			R_Knee_Lateral			R_Shank_Lateral			R_Ankle_Lateral			R_Heel			R_Toe			L_Thigh_Lateral			L_Knee_Lateral			L_Shank_Lateral			L_Ankle_Lateral			L_Heel			L_Toe		
		X1	Y1	Z1	X2	Y2	Z2	X3	Y3	Z3	X4	Y4	Z4	X5	Y5	Z5	X6	Y6	Z6	X7	Y7	Z7	X8	Y8	Z8	X9	Y9	Z9	X10	Y10	Z10	X11	Y11	Z11	X12	Y12	Z12	X13	Y13	Z13	X14	Y14	Z14	X15	Y15	Z15	X16	Y16	Z16	X17	Y17	Z17	X18	Y18	Z18	X19	Y19	Z19	X20	Y20	Z20	X21	Y21	Z21	X22	Y22	Z22	X23	Y23	Z23	X24	Y24	Z24	X25	Y25	Z25
193	1.92000000	-339.251953	1314.334595	302.916046	-354.902344	1322.875000	-31.889105	-422.045319	1385.076660	148.553543	-285.877045	1276.992432	127.942413	-443.824799	1003.865784	395.675079	-428.971283	1006.920105	-140.267609	-385.163101	757.509033	395.981461	-330.444427	781.406403	-161.738503	-323.513397	909.994446	266.797150	-349.812286	924.862793	-37.433529	-540.122620	928.098267	136.832581	-517.405273	1040.771729	138.418991	-255.120346	1015.913330	134.282486	-343.019897	575.010498	326.009125	-282.959839	443.210541	276.488678	-363.080383	321.134735	308.603333	-488.486633	124.367546	219.312744	-537.709351	139.759583	156.730118	-386.778259	62.824112	196.966095	-396.678925	608.211121	-67.973610	-404.483551	438.710358	12.269258	-427.371063	260.220093	-50.048649	-466.807648	56.960518	39.014450	-534.026672	39.644150	84.807007	-353.222382	41.000771	85.319183
194	1.93000000	-327.683624	1314.048096	303.863922	-341.056976	1322.482910	-31.075180	-409.388184	1384.602783	148.697189	-273.140198	1276.451416	129.121277	-433.582397	1003.415527	395.314301	-409.934357	1006.653076	-141.664612	-375.767288	756.893890	395.652252	-305.412750	783.792755	-162.920944	-310.876770	909.961975	266.476379	-338.372040	923.869751	-37.603077	-527.939209	927.707703	137.574570	-505.082520	1040.473389	138.374756	-242.898056	1015.240540	135.249985	-323.759857	576.193359	325.593781	-259.549316	445.738800	276.209106	-333.616577	319.487030	309.477417	-447.433899	115.025398	222.036713	-497.312378	126.188850	158.982513	-341.592529	60.716679	201.485764	-388.005951	607.762085	-67.294731	-401.017639	438.631836	12.977124	-425.539612	260.177399	-49.345531	-466.647583	57.264774	39.491787	-533.978516	40.050980	85.134148	-353.118896	40.932922	85.672325
195	1.94000000	-316.134430	1313.480713	304.816315	-327.234100	1321.805054	-30.197201	-396.759247	1383.890625	148.865234	-260.404968	1275.710938	130.331177	-423.215240	1002.722351	395.029572	-390.920563	1006.227478	-142.972076	-366.219727	756.039764	395.450989	-280.475792	786.155243	-163.953056	-298.257843	909.524536	266.217438	-326.850311	922.636963	-37.751293	-515.699280	927.108887	138.374496	-492.723846	1039.959229	138.478409	-230.585556	1014.394897	136.208878	-304.792755	577.317871	325.238892	-237.041504	448.080658	275.920685	-304.682800	317.914093	310.427612	-405.472504	105.913376	225.085281	-455.682068	112.767471	161.604294	-296.008087	59.134003	206.181961	-379.663422	607.219238	-66.643982	-397.543884	438.585907	13.691473	-423.774841	260.163879	-48.650253	-466.514465	57.617794	40.012760	-533.941223	40.544666	85.545387	-353.028015	40.874798	86.022560
196	1.95000000	-304.570953	1312.647949	305.769653	-313.424744	1320.857056	-29.248526	-384.147705	1382.963867	149.069870	-247.663956	1274.785889	131.562073	-412.708344	1001.806274	394.826538	-371.955322	1005.664978	-144.167847	-356.503922	754.967194	395.362656	-255.680931	788.508728	-164.837975	-285.650940	908.696472	266.030792	-315.223145	921.213257	-37.868721	-503.384766	926.343262	139.232590	-480.313751	1039.249268	138.747879	-218.176453	1013.403137	137.175354	-286.254028	578.299377	324.901886	-215.534317	450.165436	275.648956	-276.323059	316.390289	311.466125	-362.699097	97.250320	228.399750	-412.946625	99.792374	164.567017	-250.151276	58.215099	210.924805	-371.681519	606.626648	-66.054291	-394.065033	438.594055	14.388490	-422.093719	260.205078	-47.971714	-466.410583	58.033009	40.590218	-533.903564	41.158661	86.070198	-352.947998	40.826630	86.362770
197	1.96000000	-292.958099	1311.575073	306.722687	-299.621246	1319.664551	-28.223942	-371.543884	1381.846802	149.325745	-234.909424	1273.692017	132.805573	-402.048676	1000.694519	394.712433	-353.073303	1004.993286	-145.231277	-346.605820	753.701141	395.374527	-231.073334	790.873230	-165.576958	-273.025024	907.521057	265.920654	-303.496460	919.652161	-37.940182	-490.978027	925.440796	140.152054	-467.837494	1038.359375	139.192154	-205.661316	1012.288818	138.167725	-268.287994	579.040344	324.536652	-195.095551	451.924072	275.406464	-248.533981	314.878571	312.605743	-319.271515	89.260521	231.911743	-369.308472	87.561577	167.831345	-204.190414	58.079861	215.580399	-364.084991	606.024475	-65.553566	-390.554016	438.668518	15.054498	-420.492004	260.325470	-47.310543	-466.333649	58.529232	41.240860	-533.853882	41.932880	86.741013	-352.872803	40.787189	86.690453
198	1.97000000	-281.262787	1310.295532	307.677094	-285.820343	1318.261230	-27.120264	-358.939484	1380.563477	149.649445	-222.134308	1272.446533	134.054581	-391.224640	999.419678	394.696381	-334.319733	1004.241821	-146.146317	-336.515366	752.270752	395.478577	-206.695190	793.272034	-166.167351	-260.333435	906.062317	265.886017	-291.684540	918.013672	-37.952969	-478.462677	924.420227	141.135849	-455.282562	1037.302490	139.810867	-193.030884	1011.072205	139.204025	-251.027771	579.444458	324.107086	-175.748337	453.296204	275.193787	-221.272568	313.348206	313.853363	-275.423645	82.161263	235.549179	-325.055878	76.357994	171.346497	-158.354935	58.811489	220.021072	-356.880371	605.449219	-65.162270	-386.948395	438.810089	15.687819	-418.933868	260.545227	-46.658047	-466.277100	59.129841	41.977573	-533.779358	42.907661	87.584663	-352.793060	40.755520	87.006279
199	1.98000000	-269.454681	1308.848389	308.638092	-272.025146	1316.686646	-25.936798	-346.326996	1379.137085	150.057983	-209.332016	1271.068848	135.304047	-380.225586	998.015686	394.789581	-315.744568	1003.437012	-146.902298	-326.226608	750.708038	395.671768	-182.589958	795.727905	-166.602974	-247.523941	904.392883	265.920807	-279.794403	916.357727	-37.901329	-465.823273	923.291870	142.186218	-442.639435	1036.090576	140.595123	-180.278870	1009.770996	140.298126	-234.576340	579.430298	323.600403	-157.461533	454.238159	275.003540	-194.480026	311.794708	315.200195	-231.478043	76.144691	239.240372	-280.567139	66.429382	175.046921	-112.948090	60.440720	224.145554	-350.035614	604.933289	-64.886589	-383.159424	439.012451	16.297577	-417.351379	260.877625	-45.999889	-466.229248	59.861691	42.801750	-533.664001	44.117596	88.609550	-352.697876	40.732887	87.310974
200	1.99000000	-257.507416	1307.274902	309.614655	-258.245667	1314.984863	-24.675589	-333.699982	1377.591431	150.567352	-196.496811	1269.582153	136.552292	-369.040100	996.514282	395.003937	-297.396698	1002.600769	-147.493240	-315.736404	749.045563	395.955582	-158.809074	798.259155	-166.874954	-234.546219	902.582336	266.013153	-267.822601	914.736938	-37.787159	-453.045319	922.060547	143.306473	-429.900665	1034.734131	141.529037	-167.402161	1008.401611	141.457123	-218.990417	578.941528	323.038727	-140.150650	454.729675	274.822968	-168.124481	310.253204	316.613403	-187.851639	71.355316	242.914276	-236.304581	57.963188	178.848175	-68.346504	62.940807	227.896805	-343.462341	604.500610	-64.713432	-379.087982	439.266510	16.899515	-415.656036	261.330566	-45.325222	-466.171112	60.752304	43.698154	-533.488953	45.588745	89.795547	-352.576996	40.722511	87.603111
201	2.00000000	-245.400833	1305.614624	310.618774	-244.498154	1313.203003	-23.341265	-321.053253	1375.951050	151.192032	-183.625214	1268.014038	137.800369	-357.656189	994.942566	395.349915	-279.321594	1001.751526	-147.916794	-305.042419	747.313690	396.335434	-135.417068	800.878510	-166.971519	-221.358902	900.689697	266.148315	-255.755814	913.192383	-37.616756	-440.114227	920.726196	144.501434	-417.059021	1033.244385	142.591980	-154.399033	1006.981262	142.681381	-204.269714	577.950989	322.482605	-123.689667	454.775848	274.636383	-142.250183	308.794922	318.033234	-145.047028	67.866058	246.497681	-192.800537	51.060326	182.648346	-24.989672	66.227608	231.263306	-337.013763	604.161804	-64.612808	-374.637268	439.561462	17.508631	-413.758575	261.911346	-44.636692	-466.074219	61.825218	44.634727	-533.236389	47.339195	91.092987	-352.422363	40.727310	87.878571
